<svg width="56" height="56" viewBox="0 0 56 56" fill="none" xmlns="http://www.w3.org/2000/svg">
<path d="M30.3333 14V25.6667C30.3333 26.2855 30.5791 26.879 31.0167 27.3166C31.4543 27.7542 32.0478 28 32.6666 28H46.9046C47.2138 28.0001 47.5199 28.0616 47.8051 28.1809C48.0903 28.3003 48.3489 28.4751 48.566 28.6953L50.6613 30.8187C51.0918 31.2552 51.3332 31.8436 51.3333 32.4567V39.6667C51.3333 40.2855 51.0875 40.879 50.6499 41.3166C50.2123 41.7542 49.6188 42 49 42H42M42 42C42 44.5773 39.9106 46.6667 37.3333 46.6667C34.756 46.6667 32.6666 44.5773 32.6666 42M42 42C42 39.4227 39.9106 37.3333 37.3333 37.3333C34.756 37.3333 32.6666 39.4227 32.6666 42M11.6666 42H6.99996C6.38112 42 5.78763 41.7542 5.35004 41.3166C4.91246 40.879 4.66663 40.2855 4.66663 39.6667V18.6667C4.66663 17.429 5.15829 16.242 6.03346 15.3668C6.90863 14.4917 8.09562 14 9.33329 14H37.3333C39.9 14 42.2333 15.8667 42.9333 18.2L45.6773 28M11.6666 42C11.6666 44.5773 13.756 46.6667 16.3333 46.6667C18.9106 46.6667 21 44.5773 21 42M11.6666 42C11.6666 39.4227 13.756 37.3333 16.3333 37.3333C18.9106 37.3333 21 39.4227 21 42M21 42H32.6666" stroke="#E6A23C" stroke-width="4" stroke-linecap="round" stroke-linejoin="round"/>
</svg>
